PathFileType	4	(X/Y/Z)	C:\Users\WrightLab\Desktop\Jo\P5V127.trc
DataRate	CameraRate	NumFrames	NumMarkers	Units	OrigDataRate	OrigDataStartFrame	OrigNumFrames
100.00	100.00	       16	19	mm	100.00	398	       636
Frame#	Time	Headset_Front			Headset_Back			Headset_Left			Headset_Right			Left_Shoulder			Right_Shoulder			Sternum			C7			Left Elbow			Right Elbow			Left Wrist			Right Wrist			Left ASIS			Right ASIS			S2			Left Knee			Right Knee			Left Ankle			Right Ankle			
		X1	Y1	Z1	X2	Y2	Z2	X3	Y3	Z3	X4	Y4	Z4	X5	Y5	Z5	X6	Y6	Z6	X7	Y7	Z7	X8	Y8	Z8	X9	Y9	Z9	X10	Y10	Z10	X11	Y11	Z11	X12	Y12	Z12	X13	Y13	Z13	X14	Y14	Z14	X15	Y15	Z15	X16	Y16	Z16	X17	Y17	Z17	X18	Y18	Z18	X19	Y19	Z19	

398	3.970	-753.60999	1512.05957	1249.28223	-858.17535	1601.40088	1185.71606							-565.13654	1482.27710	1027.81226	-975.23535	1487.51184	963.40460	-812.62653	1339.26440	1090.95740				-477.73822	1203.40039	1017.22632	-1061.28284	1215.51758	887.92908	-557.00226	1075.44739	1195.52026	-1026.12305	1047.31226	1057.62463	-708.54913	933.67706	1135.65417				-718.52649	972.60803	827.06604	-674.59131	493.98553	1066.04443	-1017.70898	530.69708	1064.37256	-571.60980	163.70634	821.56757	-1045.97168	117.21974	1047.84814	
399	3.980	-754.45917	1511.61292	1255.63977	-859.85968	1601.01001	1193.95630							-569.71344	1482.56299	1030.80859	-981.86652	1486.81738	972.83667	-817.10901	1339.15369	1097.71326				-481.83640	1204.68982	1024.16748	-1069.15710	1214.00134	900.46057	-558.22363	1074.62354	1197.82971	-1029.97803	1046.48328	1069.94275	-711.62463	932.99359	1143.42065				-727.51880	972.03894	833.20898	-683.53870	492.55750	1070.88501				-577.73676	169.96994	825.52020	-1046.18750	114.88483	1053.32336	
400	3.990	-755.07617	1511.36475	1262.00879	-861.37781	1601.39539	1202.58032							-574.43884	1482.22278	1033.98022	-987.77930	1486.04932	982.14142	-820.77423	1339.11304	1104.27673				-486.31064	1203.97217	1023.82776	-1076.77673	1212.79614	913.00562	-559.84814	1074.15417	1199.52234	-1033.99768	1046.08301	1082.33423	-714.76813	933.45782	1149.17383				-736.44830	972.12799	839.00873	-693.48108	491.30869	1077.29944				-583.88678	176.68723	831.74847	-1046.82849	116.76906	1053.20813	
401	4.000	-755.50525	1511.28613	1268.05090	-862.55518	1602.02405	1211.09033							-580.22992	1482.90186	1036.49695	-993.76910	1485.91382	991.73352	-824.36499	1339.28455	1110.93152				-492.05667	1204.71265	1025.07397	-1083.86975	1212.26477	925.65961	-561.17926	1074.22021	1202.28516	-1037.54053	1045.72864	1094.62085	-715.58868	933.66437	1154.75024				-744.96179	971.97241	845.22327	-704.38171	491.56320	1084.07764				-591.02216	183.64915	839.98730	-1047.36243	116.45799	1053.85962	
402	4.010	-1029.38477	525.07172	1093.01501	-863.94525	1602.62573	1219.15100							-584.41534	1483.38013	1037.10046	-1000.26270	1486.63916	1002.01550	-827.73926	1339.56775	1117.78955				-497.73972	1204.78748	1024.97534	-1090.33533	1212.18506	938.55017	-562.62421	1073.70276	1203.82922	-1040.78906	1045.54126	1106.77380	-719.99011	935.48737	1159.55530				-753.51501	972.67365	851.42395	-713.38849	491.50729	1093.77527				-598.58441	190.60909	848.29572	-1047.70447	116.18819	1054.22424	
403	4.020	-1032.11658	526.95825	1098.04736	-865.29803	1602.32361	1226.63074							-588.56818	1484.25659	1041.04663	-1005.23273	1487.03992	1012.38745	-830.82263	1339.89465	1124.87158				-503.62289	1204.54492	1022.96460	-1095.92090	1212.60168	951.78943	-563.26178	1073.63196	1205.79785	-1043.86804	1045.52222	1118.86475	-722.39655	936.51288	1165.49890				-762.55725	972.58173	856.78198	-718.45917	494.77435	1106.22961				-605.95636	197.90453	857.02289	-1048.48267	115.91121	1054.80981	
404	4.030	-756.93915	1512.06848	1285.85632	-866.94708	1602.09644	1233.83337							-594.12292	1485.64795	1043.70935	-1010.60876	1487.80200	1023.17902	-833.65161	1340.43140	1132.09277				-507.75351	1207.43530	1027.92285	-1101.38513	1213.53162	965.34735	-564.39728	1073.34778	1207.09888	-1046.93811	1045.84644	1130.83484	-723.96472	937.05615	1168.07776				-770.83362	973.40179	862.86334	-720.18378	498.10980	1118.99304				-613.44019	205.97443	866.81183	-1049.21033	115.74170	1055.24097	
405	4.040	-1037.37585	529.51648	1106.34753	-868.25330	1601.97656	1241.08325							-597.99213	1486.51355	1045.04993	-1015.39655	1488.47632	1034.11206	-836.16217	1340.89868	1139.18750				-512.24475	1208.00342	1028.24365	-1106.51392	1214.55725	978.82135	-565.58917	1073.40564	1208.48169	-1049.63086	1046.26062	1142.65222	-725.52063	938.38495	1173.52454				-779.47083	973.98102	868.80493	-725.66986	499.75427	1131.47852				-621.04706	213.11784	876.31348	-1049.43164	115.66595	1055.35437	
406	4.050				-868.95166	1602.64343	1248.92664							-601.91852	1487.43176	1048.18823	-1020.41156	1489.19763	1045.24622	-838.75159	1341.41956	1146.29456				-516.54767	1209.90564	1029.29724	-1111.52271	1215.15417	991.87823	-566.36011	1073.25146	1209.35962	-1051.88623	1046.63147	1154.29944	-726.73615	938.47754	1177.89539				-787.69525	974.77063	874.62225	-730.21942	501.63937	1144.91931				-628.45038	222.37190	885.54315	-1049.68909	116.42023	1055.43250	
407	4.060	-1043.30945	529.40643	1114.50403	-869.17023	1604.00745	1257.30652							-607.01135	1488.51257	1049.93201	-1024.22656	1489.51990	1056.32935	-841.15588	1342.24170	1153.28906				-521.00378	1210.67139	1029.11731	-1117.17273	1215.96606	1004.52295	-567.08026	1074.52637	1211.51123	-1054.23315	1047.17432	1165.88220	-728.34991	939.84692	1180.54956				-796.04956	975.83038	881.22839	-734.72968	502.56445	1158.41772				-636.00488	230.21265	894.08032	-1049.63342	116.58064	1055.49963	
408	4.070	-1045.89148	528.69568	1118.35352	-869.19556	1605.45496	1265.45264							-610.05603	1490.13855	1053.24109	-1027.77905	1489.85632	1067.40271	-842.71631	1342.83972	1160.07959				-525.20447	1211.69067	1028.92273	-1122.70374	1216.49939	1016.79437	-567.84406	1074.57324	1213.10730	-1056.43213	1048.04028	1177.32385	-727.16461	939.64526	1183.92908				-803.58508	976.78113	886.16492	-739.55322	502.75391	1172.61304				-643.04034	238.91357	904.13239	-1049.44775	116.77742	1055.58240	
409	4.080	-1048.90100	526.77435	1121.88318	-869.92236	1606.79272	1273.21667							-614.54010	1491.26001	1054.19128	-1031.15247	1490.21375	1078.62952	-843.60449	1343.12549	1166.57410				-529.55731	1213.10864	1029.88574	-1128.19495	1216.99915	1028.97083	-568.12286	1074.72473	1213.44629	-1058.13318	1048.57666	1188.68848	-727.90625	941.40778	1186.96655				-810.87592	979.45105	891.30573	-743.50531	505.48065	1187.07922				-650.42603	246.79385	913.14404	-1048.95850	117.03223	1055.45642	
410	4.090	-1051.93958	525.36603	1125.28748	-869.92590	1607.19983	1280.57971							-618.10626	1493.30347	1060.38953	-1034.39343	1490.85034	1089.85266	-844.77429	1343.76282	1173.01404				-533.96112	1213.74707	1030.95911	-1133.39575	1217.57080	1041.20532	-569.85071	1075.83862	1214.44897	-1059.77356	1049.27100	1199.94226	-730.43506	940.99628	1191.23022				-818.64331	980.50305	898.38776	-745.92188	507.98706	1203.07568				-658.01025	252.52995	921.52136	-1048.63586	117.42671	1056.22485	
411	4.100	-1054.91504	524.04700	1128.69470	-870.29089	1607.50793	1287.74609							-621.68567	1495.30408	1062.89429	-1036.60071	1491.11938	1100.80688	-845.54980	1344.30603	1179.37915				-539.05048	1216.01941	1031.11414	-1138.46631	1218.77356	1053.93250	-570.24805	1075.85730	1215.65198	-1061.35767	1050.30383	1211.19275	-728.50140	942.67908	1192.62231				-826.41077	982.05975	904.16418	-749.05090	509.95331	1216.91235				-666.33179	258.37149	929.28394	-1047.80322	117.29478	1056.14551	
412	4.110	-1057.74023	523.01288	1132.95813	-870.32159	1608.06641	1295.06067										-1039.36499	1491.80725	1111.86377	-846.50336	1345.00635	1185.75354				-542.74646	1216.61792	1030.98926	-1142.50513	1220.05811	1066.89905	-571.12830	1076.92615	1216.57263	-1062.35950	1050.95361	1222.31921	-729.78625	943.99646	1198.23035				-832.85596	983.76385	910.62085	-751.82538	513.22711	1231.24353				-674.57959	263.01245	939.51605	-1047.36926	117.92669	1057.06421	
413	4.120	-1060.25244	522.47705	1137.16516	-869.73010	1609.08655	1302.68079										-1041.35071	1492.31445	1122.66675	-847.27216	1345.53589	1192.13391				-546.55566	1217.89429	1032.04956	-1145.73718	1221.44861	1079.90161	-571.36377	1077.32910	1217.18347	-1063.41345	1051.90454	1233.35815	-729.57245	944.49390	1201.56592				-840.05841	984.89581	916.12842	-750.98383	516.88165	1244.53271				-682.38239	266.28281	949.19965	-1047.08752	118.15739	1056.91321	
